solid 1.5line
facet normal 0.0 1.0 0.0
  outer loop
    vertex 0.0 2.9999999999999973 0.0
    vertex 3.1250047015033404 2.9999999999999973 1.484454876285088
    vertex 8.00000349141712 2.9999999999999973 0.0
  endloop
endfacet
facet normal 0.0 1.0 0.0
  outer loop
    vertex 3.1250047015033404 2.9999999999999973 1.484454876285088
    vertex 0.0 2.9999999999999973 0.0
    vertex 2.4844613759659198 2.9999999999999973 2.1249992801853788
  endloop
endfacet
facet normal 0.0 1.0 0.0
  outer loop
    vertex 2.4844613759659198 2.9999999999999973 2.1249992801853788
    vertex 0.0 2.9999999999999973 0.0
    vertex 3.9023834658841183e-07 2.9999999999999973 5.999999598432881
  endloop
endfacet
facet normal 0.0 1.0 0.0
  outer loop
    vertex 8.00000349141712 2.9999999999999973 0.0
    vertex 3.1250047015033404 2.9999999999999973 1.484454876285088
    vertex 4.0000008641965215 2.9999999999999973 1.2499998376143229
  endloop
endfacet
facet normal 0.0 1.0 0.0
  outer loop
    vertex 2.4844613759659198 2.9999999999999973 2.1249992801853788
    vertex 3.9023834658841183e-07 2.9999999999999973 5.999999598432881
    vertex 2.2500040062181443 2.9999999999999973 2.999999281488457
  endloop
endfacet
facet normal 0.0 1.0 0.0
  outer loop
    vertex 2.2500040062181443 2.9999999999999973 2.999999281488457
    vertex 3.9023834658841183e-07 2.9999999999999973 5.999999598432881
    vertex 2.484458630950258 2.9999999999999973 3.874999303217867
  endloop
endfacet
facet normal 0.0 1.0 0.0
  outer loop
    vertex 2.484458630950258 2.9999999999999973 3.874999303217867
    vertex 3.9023834658841183e-07 2.9999999999999973 5.999999598432881
    vertex 3.1250050484947365 2.9999999999999973 4.515543905304927
  endloop
endfacet
facet normal 0.0 1.0 0.0
  outer loop
    vertex 3.1250050484947365 2.9999999999999973 4.515543905304927
    vertex 3.9023834658841183e-07 2.9999999999999973 5.999999598432881
    vertex 4.000002961374909 2.9999999999999973 4.749999047765019
  endloop
endfacet
facet normal 0.0 1.0 0.0
  outer loop
    vertex 4.000002961374909 2.9999999999999973 4.749999047765019
    vertex 3.9023834658841183e-07 2.9999999999999973 5.999999598432881
    vertex 8.000003853613423 2.9999999999999973 5.999999241906115
  endloop
endfacet
facet normal 0.0 1.0 0.0
  outer loop
    vertex 8.00000349141712 2.9999999999999973 0.0
    vertex 5.51554521331583 2.9999999999999973 2.1249998198459896
    vertex 8.000003853613423 2.9999999999999973 5.999999241906115
  endloop
endfacet
facet normal 0.0 1.0 0.0
  outer loop
    vertex 5.51554521331583 2.9999999999999973 2.1249998198459896
    vertex 8.00000349141712 2.9999999999999973 0.0
    vertex 4.875006420370469 2.9999999999999973 1.484454857213673
  endloop
endfacet
facet normal 0.0 1.0 0.0
  outer loop
    vertex 4.875006420370469 2.9999999999999973 1.484454857213673
    vertex 8.00000349141712 2.9999999999999973 0.0
    vertex 4.0000008641965215 2.9999999999999973 1.2499998376143229
  endloop
endfacet
facet normal 0.0 1.0 0.0
  outer loop
    vertex 8.000003853613423 2.9999999999999973 5.999999241906115
    vertex 5.51554521331583 2.9999999999999973 2.1249998198459896
    vertex 5.750007443952358 2.9999999999999973 2.999999243345631
  endloop
endfacet
facet normal 0.0 1.0 0.0
  outer loop
    vertex 8.000003853613423 2.9999999999999973 5.999999241906115
    vertex 5.750007443952358 2.9999999999999973 2.999999243345631
    vertex 5.515550074204583 2.9999999999999973 3.8749992446487087
  endloop
endfacet
facet normal 0.0 1.0 0.0
  outer loop
    vertex 8.000003853613423 2.9999999999999973 5.999999241906115
    vertex 5.515550074204583 2.9999999999999973 3.8749992446487087
    vertex 4.875006748667163 2.9999999999999973 4.515543648549
  endloop
endfacet
facet normal 0.0 1.0 0.0
  outer loop
    vertex 8.000003853613423 2.9999999999999973 5.999999241906115
    vertex 4.875006748667163 2.9999999999999973 4.515543648549
    vertex 4.000002961374909 2.9999999999999973 4.749999047765019
  endloop
endfacet
facet normal 0.2588192081723437 -9.49540509008684e-18 -0.9659257825946264
  outer loop
    vertex 4.000002961374909 0.0 4.749999047765019
    vertex 3.1250050484947365 2.9999999999999973 4.515543905304927
    vertex 4.000002961374909 2.9999999999999973 4.749999047765019
  endloop
endfacet
facet normal 0.2588192081723438 0.0 -0.9659257825946264
  outer loop
    vertex 4.000002961374909 0.0 4.749999047765019
    vertex 3.1250050484947365 0.0 4.515543905304927
    vertex 3.1250050484947365 2.9999999999999973 4.515543905304927
  endloop
endfacet
facet normal 0.7071057791319377 -1.1771635244767373e-17 -0.7071077832397372
  outer loop
    vertex 3.1250050484947365 0.0 4.515543905304927
    vertex 2.484458630950258 2.9999999999999973 3.874999303217867
    vertex 3.1250050484947365 2.9999999999999973 4.515543905304927
  endloop
endfacet
facet normal 0.7071057791319377 1.1771635244767368e-17 -0.7071077832397372
  outer loop
    vertex 3.1250050484947365 0.0 4.515543905304927
    vertex 2.484458630950258 0.0 3.874999303217867
    vertex 2.484458630950258 2.9999999999999973 3.874999303217867
  endloop
endfacet
facet normal 0.9659260814220976 1.3655088446466324e-17 -0.2588180929312161
  outer loop
    vertex 2.484458630950258 2.9999999999999973 3.874999303217867
    vertex 2.484458630950258 0.0 3.874999303217867
    vertex 2.2500040062181443 2.9999999999999973 2.999999281488457
  endloop
endfacet
facet normal 0.9659260814220976 4.551696148822108e-18 -0.25881809293121616
  outer loop
    vertex 2.2500040062181443 2.9999999999999973 2.999999281488457
    vertex 2.484458630950258 0.0 3.874999303217867
    vertex 2.2500040062181443 0.0 2.999999281488457
  endloop
endfacet
facet normal 0.965925322344297 -1.8990713386267887e-17 0.2588209258426881
  outer loop
    vertex 2.2500040062181443 2.9999999999999973 2.999999281488457
    vertex 2.2500040062181443 0.0 2.999999281488457
    vertex 2.4844613759659198 2.9999999999999973 2.1249992801853788
  endloop
endfacet
facet normal 0.965925322344297 -9.495356693133943e-18 0.2588209258426882
  outer loop
    vertex 2.4844613759659198 2.9999999999999973 2.1249992801853788
    vertex 2.2500040062181443 0.0 2.999999281488457
    vertex 2.4844613759659198 0.0 2.1249992801853788
  endloop
endfacet
facet normal 0.7071073763974455 0.0 0.7071061859751487
  outer loop
    vertex 2.4844613759659198 2.9999999999999973 2.1249992801853788
    vertex 2.4844613759659198 0.0 2.1249992801853788
    vertex 3.1250047015033404 2.9999999999999973 1.484454876285088
  endloop
endfacet
facet normal 0.7071073763974456 -1.1771689925347546e-17 0.7071061859751486
  outer loop
    vertex 3.1250047015033404 2.9999999999999973 1.484454876285088
    vertex 2.4844613759659198 0.0 2.1249992801853788
    vertex 3.1250047015033404 0.0 1.484454876285088
  endloop
endfacet
facet normal 0.25881958428915286 -4.5517338347393956e-18 0.9659256818142845
  outer loop
    vertex 4.0000008641965215 2.9999999999999973 1.2499998376143229
    vertex 3.1250047015033404 2.9999999999999973 1.484454876285088
    vertex 3.1250047015033404 0.0 1.484454876285088
  endloop
endfacet
facet normal 0.25881958428915286 -9.10346766947879e-18 0.9659256818142845
  outer loop
    vertex 4.0000008641965215 2.9999999999999973 1.2499998376143229
    vertex 3.1250047015033404 0.0 1.484454876285088
    vertex 4.0000008641965215 0.0 1.2499998376143229
  endloop
endfacet
facet normal -0.25881697225373657 -9.495243200073732e-18 0.9659263817048424
  outer loop
    vertex 4.875006420370469 2.9999999999999973 1.484454857213673
    vertex 4.0000008641965215 2.9999999999999973 1.2499998376143229
    vertex 4.0000008641965215 0.0 1.2499998376143229
  endloop
endfacet
facet normal -0.25881697225373657 -1.8990486400147455e-17 0.9659263817048424
  outer loop
    vertex 4.875006420370469 2.9999999999999973 1.484454857213673
    vertex 4.0000008641965215 0.0 1.2499998376143229
    vertex 4.875006420370469 0.0 1.484454857213673
  endloop
endfacet
facet normal -0.707110186597755 0.0 0.7071033757589396
  outer loop
    vertex 4.875006420370469 2.9999999999999973 1.484454857213673
    vertex 4.875006420370469 0.0 1.484454857213673
    vertex 5.51554521331583 2.9999999999999973 2.1249998198459896
  endloop
endfacet
facet normal -0.707110186597755 1.1771706067275855e-17 0.7071033757589396
  outer loop
    vertex 5.51554521331583 2.9999999999999973 2.1249998198459896
    vertex 4.875006420370469 0.0 1.484454857213673
    vertex 5.51554521331583 0.0 2.1249998198459896
  endloop
endfacet
facet normal -0.9659239380927445 4.5516891608436065e-18 0.2588260918443194
  outer loop
    vertex 5.51554521331583 2.9999999999999973 2.1249998198459896
    vertex 5.51554521331583 0.0 2.1249998198459896
    vertex 5.750007443952358 2.9999999999999973 2.999999243345631
  endloop
endfacet
facet normal -0.9659239380927445 0.0 0.2588260918443194
  outer loop
    vertex 5.750007443952358 2.9999999999999973 2.999999243345631
    vertex 5.51554521331583 0.0 2.1249998198459896
    vertex 5.750007443952358 0.0 2.999999243345631
  endloop
endfacet
facet normal -0.965925322344297 -9.495356693133945e-18 -0.2588209258426882
  outer loop
    vertex 5.750007443952358 2.9999999999999973 2.999999243345631
    vertex 5.750007443952358 0.0 2.999999243345631
    vertex 5.515550074204583 2.9999999999999973 3.8749992446487087
  endloop
endfacet
facet normal -0.965925322344297 -1.8990713386267884e-17 -0.25882092584268807
  outer loop
    vertex 5.515550074204583 2.9999999999999973 3.8749992446487087
    vertex 5.750007443952358 0.0 2.999999243345631
    vertex 5.515550074204583 0.0 3.8749992446487087
  endloop
endfacet
facet normal -0.7071073763974459 -1.1771689925347546e-17 -0.7071061859751483
  outer loop
    vertex 5.515550074204583 2.9999999999999973 3.8749992446487087
    vertex 5.515550074204583 0.0 3.8749992446487087
    vertex 4.875006748667163 2.9999999999999973 4.515543648549
  endloop
endfacet
facet normal -0.7071073763974459 1.1771689925347543e-17 -0.7071061859751483
  outer loop
    vertex 4.875006748667163 2.9999999999999973 4.515543648549
    vertex 5.515550074204583 0.0 3.8749992446487087
    vertex 4.875006748667163 0.0 4.515543648549
  endloop
endfacet
facet normal -0.2588178514134119 0.0 -0.9659261461363106
  outer loop
    vertex 4.875006748667163 0.0 4.515543648549
    vertex 4.000002961374909 2.9999999999999973 4.749999047765019
    vertex 4.875006748667163 2.9999999999999973 4.515543648549
  endloop
endfacet
facet normal -0.25881785141341196 -4.551657371532068e-18 -0.9659261461363106
  outer loop
    vertex 4.875006748667163 0.0 4.515543648549
    vertex 4.000002961374909 0.0 4.749999047765019
    vertex 4.000002961374909 2.9999999999999973 4.749999047765019
  endloop
endfacet
facet normal 0.0 0.0 -1.0
  outer loop
    vertex 8.00000349141712 2.9999999999999973 0.0
    vertex 0.0 0.0 0.0
    vertex 0.0 2.9999999999999973 0.0
  endloop
endfacet
facet normal 0.0 0.0 -1.0
  outer loop
    vertex 0.0 0.0 0.0
    vertex 8.00000349141712 2.9999999999999973 0.0
    vertex 8.00000349141712 0.0 0.0
  endloop
endfacet
facet normal 0.0 -1.0 0.0
  outer loop
    vertex 8.00000349141712 0.0 0.0
    vertex 4.875006420370469 0.0 1.484454857213673
    vertex 0.0 0.0 0.0
  endloop
endfacet
facet normal 0.0 -1.0 0.0
  outer loop
    vertex 4.875006420370469 0.0 1.484454857213673
    vertex 8.00000349141712 0.0 0.0
    vertex 5.51554521331583 0.0 2.1249998198459896
  endloop
endfacet
facet normal 0.0 -1.0 0.0
  outer loop
    vertex 5.51554521331583 0.0 2.1249998198459896
    vertex 8.00000349141712 0.0 0.0
    vertex 8.000007893747844 0.0 8.999999276797823
  endloop
endfacet
facet normal 0.0 -1.0 0.0
  outer loop
    vertex 0.0 0.0 0.0
    vertex 4.875006420370469 0.0 1.484454857213673
    vertex 4.0000008641965215 0.0 1.2499998376143229
  endloop
endfacet
facet normal 0.0 -1.0 0.0
  outer loop
    vertex 5.51554521331583 0.0 2.1249998198459896
    vertex 8.000007893747844 0.0 8.999999276797823
    vertex 5.750007443952358 0.0 2.999999243345631
  endloop
endfacet
facet normal 0.0 -1.0 0.0
  outer loop
    vertex 5.750007443952358 0.0 2.999999243345631
    vertex 8.000007893747844 0.0 8.999999276797823
    vertex 5.515550074204583 0.0 3.8749992446487087
  endloop
endfacet
facet normal 0.0 -1.0 0.0
  outer loop
    vertex 5.515550074204583 0.0 3.8749992446487087
    vertex 8.000007893747844 0.0 8.999999276797823
    vertex 4.875006748667163 0.0 4.515543648549
  endloop
endfacet
facet normal 0.0 -1.0 0.0
  outer loop
    vertex 4.875006748667163 0.0 4.515543648549
    vertex 8.000007893747844 0.0 8.999999276797823
    vertex 4.000002961374909 0.0 4.749999047765019
  endloop
endfacet
facet normal 0.0 -1.0 0.0
  outer loop
    vertex 4.000002961374909 0.0 4.749999047765019
    vertex 8.000007893747844 0.0 8.999999276797823
    vertex 4.392983397524808e-06 0.0 8.999999157955566
  endloop
endfacet
facet normal 0.0 -1.0 0.0
  outer loop
    vertex 0.0 0.0 0.0
    vertex 2.4844613759659198 0.0 2.1249992801853788
    vertex 4.392983397524808e-06 0.0 8.999999157955566
  endloop
endfacet
facet normal 0.0 -1.0 0.0
  outer loop
    vertex 2.4844613759659198 0.0 2.1249992801853788
    vertex 0.0 0.0 0.0
    vertex 3.1250047015033404 0.0 1.484454876285088
  endloop
endfacet
facet normal 0.0 -1.0 0.0
  outer loop
    vertex 3.1250047015033404 0.0 1.484454876285088
    vertex 0.0 0.0 0.0
    vertex 4.0000008641965215 0.0 1.2499998376143229
  endloop
endfacet
facet normal 0.0 -1.0 0.0
  outer loop
    vertex 4.392983397524808e-06 0.0 8.999999157955566
    vertex 2.4844613759659198 0.0 2.1249992801853788
    vertex 2.2500040062181443 0.0 2.999999281488457
  endloop
endfacet
facet normal 0.0 -1.0 0.0
  outer loop
    vertex 4.392983397524808e-06 0.0 8.999999157955566
    vertex 2.2500040062181443 0.0 2.999999281488457
    vertex 2.484458630950258 0.0 3.874999303217867
  endloop
endfacet
facet normal 0.0 -1.0 0.0
  outer loop
    vertex 4.392983397524808e-06 0.0 8.999999157955566
    vertex 2.484458630950258 0.0 3.874999303217867
    vertex 3.1250050484947365 0.0 4.515543905304927
  endloop
endfacet
facet normal 0.0 -1.0 0.0
  outer loop
    vertex 4.392983397524808e-06 0.0 8.999999157955566
    vertex 3.1250050484947365 0.0 4.515543905304927
    vertex 4.000002961374909 0.0 4.749999047765019
  endloop
endfacet
facet normal 0.9999999999999989 -2.1404361616179746e-08 -4.353403426420042e-08
  outer loop
    vertex 8.00000349141712 2.9999999999999973 0.0
    vertex 8.000007893747844 0.0 8.999999276797823
    vertex 8.00000349141712 0.0 0.0
  endloop
endfacet
facet normal 0.9999999999999989 -2.1404361616179746e-08 -4.353403426420042e-08
  outer loop
    vertex 8.000007893747844 0.0 8.999999276797823
    vertex 8.00000349141712 2.9999999999999973 0.0
    vertex 8.000003853613423 2.9999999999999973 5.999999241906115
  endloop
endfacet
facet normal 0.9999999999999989 -2.1404361616179746e-08 -4.353403426420042e-08
  outer loop
    vertex 8.000007893747844 0.0 8.999999276797823
    vertex 8.000003853613423 2.9999999999999973 5.999999241906115
    vertex 8.000007893747844 41.09999999999998 8.999999276797823
  endloop
endfacet
facet normal 0.9999999999999989 -2.1404361616179746e-08 -4.353403426420042e-08
  outer loop
    vertex 8.000007893747844 41.09999999999998 8.999999276797823
    vertex 8.000003853613423 2.9999999999999973 5.999999241906115
    vertex 8.0000051368429 44.274999999999984 5.999999241905485
  endloop
endfacet
facet normal 0.9999999999999989 -2.1404361616179746e-08 -4.353403426420042e-08
  outer loop
    vertex 8.000007893747844 41.09999999999998 8.999999276797823
    vertex 8.0000051368429 44.274999999999984 5.999999241905485
    vertex 8.00000480234224 41.09999999999998 18.000000577932497
  endloop
endfacet
facet normal 0.9999999999999989 -2.1404361616179746e-08 -4.353403426420042e-08
  outer loop
    vertex 8.00000480234224 41.09999999999998 18.000000577932497
    vertex 8.0000051368429 44.274999999999984 5.999999241905485
    vertex 8.00000480234224 44.274999999999984 18.000000577932497
  endloop
endfacet
facet normal -4.456602342784129e-08 2.4303210211956945e-14 -0.9999999999999991
  outer loop
    vertex 8.0000051368429 44.274999999999984 5.999999241905485
    vertex 3.9023834658841183e-07 2.9999999999999973 5.999999598432881
    vertex 2.919308162037285e-06 44.274999999999984 5.999999598433772
  endloop
endfacet
facet normal 0.0 1.0 0.0
  outer loop
    vertex 2.919308162037285e-06 44.274999999999984 5.999999598433772
    vertex 3.125005500674714 44.274999999999984 13.484454310835366
    vertex 4.000001719451913 44.274999999999984 13.24999998521814
  endloop
endfacet
facet normal 0.0 1.0 0.0
  outer loop
    vertex 3.125005500674714 44.274999999999984 13.484454310835366
    vertex 2.919308162037285e-06 44.274999999999984 5.999999598433772
    vertex 2.4844621751372937 44.274999999999984 14.124998714735655
  endloop
endfacet
facet normal 0.0 1.0 0.0
  outer loop
    vertex 2.4844621751372937 44.274999999999984 14.124998714735655
    vertex 2.919308162037285e-06 44.274999999999984 5.999999598433772
    vertex 1.2267990694925234e-06 44.274999999999984 17.999999508352186
  endloop
endfacet
facet normal 0.0 1.0 0.0
  outer loop
    vertex 2.4844621751372937 44.274999999999984 14.124998714735655
    vertex 1.2267990694925234e-06 44.274999999999984 17.999999508352186
    vertex 2.2500048053895183 44.274999999999984 14.999998716038736
  endloop
endfacet
facet normal 0.0 1.0 0.0
  outer loop
    vertex 2.2500048053895183 44.274999999999984 14.999998716038736
    vertex 1.2267990694925234e-06 44.274999999999984 17.999999508352186
    vertex 2.4844595796790516 44.274999999999984 15.87500063924425
  endloop
endfacet
facet normal 0.0 1.0 0.0
  outer loop
    vertex 2.4844595796790516 44.274999999999984 15.87500063924425
    vertex 1.2267990694925234e-06 44.274999999999984 17.999999508352186
    vertex 3.1250058850554483 44.274999999999984 16.515543815224234
  endloop
endfacet
facet normal 0.0 1.0 0.0
  outer loop
    vertex 3.1250058850554483 44.274999999999984 16.515543815224234
    vertex 1.2267990694925234e-06 44.274999999999984 17.999999508352186
    vertex 4.000003835324982 44.274999999999984 16.749999433053347
  endloop
endfacet
facet normal 0.0 1.0 0.0
  outer loop
    vertex 8.0000051368429 44.274999999999984 5.999999241905485
    vertex 5.515546049876565 44.274999999999984 14.12499972976529
    vertex 8.00000480234224 44.274999999999984 18.000000577932497
  endloop
endfacet
facet normal 0.0 1.0 0.0
  outer loop
    vertex 5.515546049876565 44.274999999999984 14.12499972976529
    vertex 8.0000051368429 44.274999999999984 5.999999241905485
    vertex 2.919308162037285e-06 44.274999999999984 5.999999598433772
  endloop
endfacet
facet normal 0.0 1.0 0.0
  outer loop
    vertex 5.515546049876565 44.274999999999984 14.12499972976529
    vertex 2.919308162037285e-06 44.274999999999984 5.999999598433772
    vertex 4.875007275625862 44.274999999999984 13.484455004817491
  endloop
endfacet
facet normal 0.0 1.0 0.0
  outer loop
    vertex 4.875007275625862 44.274999999999984 13.484455004817491
    vertex 2.919308162037285e-06 44.274999999999984 5.999999598433772
    vertex 4.000001719451913 44.274999999999984 13.24999998521814
  endloop
endfacet
facet normal 0.0 1.0 0.0
  outer loop
    vertex 8.00000480234224 44.274999999999984 18.000000577932497
    vertex 5.515546049876565 44.274999999999984 14.12499972976529
    vertex 5.750008355291813 44.274999999999984 15.000000104002988
  endloop
endfacet
facet normal 0.0 1.0 0.0
  outer loop
    vertex 8.00000480234224 44.274999999999984 18.000000577932497
    vertex 5.750008355291813 44.274999999999984 15.000000104002988
    vertex 5.515550835986597 44.274999999999984 15.874998203829959
  endloop
endfacet
facet normal 0.0 1.0 0.0
  outer loop
    vertex 8.00000480234224 44.274999999999984 18.000000577932497
    vertex 5.515550835986597 44.274999999999984 15.874998203829959
    vertex 4.8750076600066174 44.274999999999984 16.515544509206357
  endloop
endfacet
facet normal 0.0 1.0 0.0
  outer loop
    vertex 8.00000480234224 44.274999999999984 18.000000577932497
    vertex 4.8750076600066174 44.274999999999984 16.515544509206357
    vertex 4.000003835324982 44.274999999999984 16.749999433053347
  endloop
endfacet
facet normal 0.0 1.0 0.0
  outer loop
    vertex 8.00000480234224 44.274999999999984 18.000000577932497
    vertex 4.000003835324982 44.274999999999984 16.749999433053347
    vertex 1.2267990694925234e-06 44.274999999999984 17.999999508352186
  endloop
endfacet
facet normal -0.9999999999999989 4.175067847725727e-08 -1.94289571628416e-08
  outer loop
    vertex 1.2267990694925234e-06 44.274999999999984 17.999999508352186
    vertex 4.392983397524808e-06 41.09999999999998 8.999999157955566
    vertex 1.2267990694925234e-06 41.09999999999998 17.999999508352186
  endloop
endfacet
facet normal -0.9999999999999989 4.175067847725727e-08 -1.94289571628416e-08
  outer loop
    vertex 4.392983397524808e-06 0.0 8.999999157955566
    vertex 3.9023834658841183e-07 2.9999999999999973 5.999999598432881
    vertex 0.0 0.0 0.0
  endloop
endfacet
facet normal -0.9999999999999989 4.175067847725727e-08 -1.94289571628416e-08
  outer loop
    vertex 3.9023834658841183e-07 2.9999999999999973 5.999999598432881
    vertex 4.392983397524808e-06 0.0 8.999999157955566
    vertex 4.392983397524808e-06 41.09999999999998 8.999999157955566
  endloop
endfacet
facet normal -0.9999999999999989 4.175067847725727e-08 -1.94289571628416e-08
  outer loop
    vertex 3.9023834658841183e-07 2.9999999999999973 5.999999598432881
    vertex 4.392983397524808e-06 41.09999999999998 8.999999157955566
    vertex 2.919308162037285e-06 44.274999999999984 5.999999598433772
  endloop
endfacet
facet normal -0.9999999999999989 4.175067847725727e-08 -1.94289571628416e-08
  outer loop
    vertex 2.919308162037285e-06 44.274999999999984 5.999999598433772
    vertex 4.392983397524808e-06 41.09999999999998 8.999999157955566
    vertex 1.2267990694925234e-06 44.274999999999984 17.999999508352186
  endloop
endfacet
facet normal -0.9999999999999989 4.175067847725727e-08 -1.94289571628416e-08
  outer loop
    vertex 0.0 2.9999999999999973 0.0
    vertex 0.0 0.0 0.0
    vertex 3.9023834658841183e-07 2.9999999999999973 5.999999598432881
  endloop
endfacet
facet normal -1.3369747901265666e-07 0.0 0.9999999999999911
  outer loop
    vertex 8.00000480234224 41.09999999999998 18.000000577932497
    vertex 1.2267990694925234e-06 44.274999999999984 17.999999508352186
    vertex 1.2267990694925234e-06 41.09999999999998 17.999999508352186
  endloop
endfacet
facet normal -1.3369747901265666e-07 0.0 0.9999999999999911
  outer loop
    vertex 1.2267990694925234e-06 44.274999999999984 17.999999508352186
    vertex 8.00000480234224 41.09999999999998 18.000000577932497
    vertex 8.00000480234224 44.274999999999984 18.000000577932497
  endloop
endfacet
facet normal -0.9659251404558633 -0.0 -0.2588216046533222
  outer loop
    vertex 5.515550835986597 44.274999999999984 15.874998203829959
    vertex 5.750008355291813 41.09999999999998 15.000000104002988
    vertex 5.515550835986597 41.09999999999998 15.874998203829959
  endloop
endfacet
facet normal -0.9659251404558633 -0.0 -0.2588216046533222
  outer loop
    vertex 5.750008355291813 41.09999999999998 15.000000104002988
    vertex 5.515550835986597 44.274999999999984 15.874998203829959
    vertex 5.750008355291813 44.274999999999984 15.000000104002988
  endloop
endfacet
facet normal -0.9659239877640373 0.0 0.25882590647386905
  outer loop
    vertex 5.750008355291813 44.274999999999984 15.000000104002988
    vertex 5.515546049876565 41.09999999999998 14.12499972976529
    vertex 5.750008355291813 41.09999999999998 15.000000104002988
  endloop
endfacet
facet normal -0.9659239877640373 0.0 0.25882590647386905
  outer loop
    vertex 5.515546049876565 41.09999999999998 14.12499972976529
    vertex 5.750008355291813 44.274999999999984 15.000000104002988
    vertex 5.515546049876565 44.274999999999984 14.12499972976529
  endloop
endfacet
facet normal -0.7071100657253769 0.0 0.7071034966324614
  outer loop
    vertex 5.515546049876565 44.274999999999984 14.12499972976529
    vertex 4.875007275625862 41.09999999999998 13.484455004817491
    vertex 5.515546049876565 41.09999999999998 14.12499972976529
  endloop
endfacet
facet normal -0.7071100657253769 0.0 0.7071034966324614
  outer loop
    vertex 4.875007275625862 41.09999999999998 13.484455004817491
    vertex 5.515546049876565 44.274999999999984 14.12499972976529
    vertex 4.875007275625862 44.274999999999984 13.484455004817491
  endloop
endfacet
facet normal -0.25881697225373756 0.0 0.9659263817048419
  outer loop
    vertex 4.875007275625862 41.09999999999998 13.484455004817491
    vertex 4.000001719451913 44.274999999999984 13.24999998521814
    vertex 4.000001719451913 41.09999999999998 13.24999998521814
  endloop
endfacet
facet normal -0.25881697225373756 0.0 0.9659263817048419
  outer loop
    vertex 4.000001719451913 44.274999999999984 13.24999998521814
    vertex 4.875007275625862 41.09999999999998 13.484455004817491
    vertex 4.875007275625862 44.274999999999984 13.484455004817491
  endloop
endfacet
facet normal 0.2588188343864146 0.0 0.9659258827502542
  outer loop
    vertex 4.000001719451913 41.09999999999998 13.24999998521814
    vertex 3.125005500674714 44.274999999999984 13.484454310835366
    vertex 3.125005500674714 41.09999999999998 13.484454310835366
  endloop
endfacet
facet normal 0.2588188343864146 0.0 0.9659258827502542
  outer loop
    vertex 3.125005500674714 44.274999999999984 13.484454310835366
    vertex 4.000001719451913 41.09999999999998 13.24999998521814
    vertex 4.000001719451913 44.274999999999984 13.24999998521814
  endloop
endfacet
facet normal 0.7071073763974443 0.0 0.70710618597515
  outer loop
    vertex 3.125005500674714 44.274999999999984 13.484454310835366
    vertex 2.4844621751372937 41.09999999999998 14.124998714735655
    vertex 3.125005500674714 41.09999999999998 13.484454310835366
  endloop
endfacet
facet normal 0.7071073763974443 0.0 0.70710618597515
  outer loop
    vertex 2.4844621751372937 41.09999999999998 14.124998714735655
    vertex 3.125005500674714 44.274999999999984 13.484454310835366
    vertex 2.4844621751372937 44.274999999999984 14.124998714735655
  endloop
endfacet
facet normal 0.9659253223442971 0.0 0.2588209258426877
  outer loop
    vertex 2.4844621751372937 44.274999999999984 14.124998714735655
    vertex 2.2500048053895183 41.09999999999998 14.999998716038736
    vertex 2.4844621751372937 41.09999999999998 14.124998714735655
  endloop
endfacet
facet normal 0.9659253223442971 0.0 0.2588209258426877
  outer loop
    vertex 2.2500048053895183 41.09999999999998 14.999998716038736
    vertex 2.4844621751372937 44.274999999999984 14.124998714735655
    vertex 2.2500048053895183 44.274999999999984 14.999998716038736
  endloop
endfacet
facet normal 0.9659261807571952 0.0 -0.25881772220583804
  outer loop
    vertex 2.2500048053895183 44.274999999999984 14.999998716038736
    vertex 2.4844595796790516 41.09999999999998 15.87500063924425
    vertex 2.2500048053895183 41.09999999999998 14.999998716038736
  endloop
endfacet
facet normal 0.9659261807571952 0.0 -0.25881772220583804
  outer loop
    vertex 2.4844595796790516 41.09999999999998 15.87500063924425
    vertex 2.2500048053895183 44.274999999999984 14.999998716038736
    vertex 2.4844595796790516 44.274999999999984 15.87500063924425
  endloop
endfacet
facet normal 0.7071050538910231 0.0 -0.7071085084778526
  outer loop
    vertex 3.1250058850554483 44.274999999999984 16.515543815224234
    vertex 2.4844595796790516 41.09999999999998 15.87500063924425
    vertex 2.4844595796790516 44.274999999999984 15.87500063924425
  endloop
endfacet
facet normal 0.7071050538910231 0.0 -0.7071085084778526
  outer loop
    vertex 2.4844595796790516 41.09999999999998 15.87500063924425
    vertex 3.1250058850554483 44.274999999999984 16.515543815224234
    vertex 3.1250058850554483 41.09999999999998 16.515543815224234
  endloop
endfacet
facet normal 0.2588196874689991 0.0 -0.9659256541672603
  outer loop
    vertex 4.000003835324982 44.274999999999984 16.749999433053347
    vertex 3.1250058850554483 41.09999999999998 16.515543815224234
    vertex 3.1250058850554483 44.274999999999984 16.515543815224234
  endloop
endfacet
facet normal 0.2588196874689991 0.0 -0.9659256541672603
  outer loop
    vertex 3.1250058850554483 41.09999999999998 16.515543815224234
    vertex 4.000003835324982 44.274999999999984 16.749999433053347
    vertex 4.000003835324982 41.09999999999998 16.749999433053347
  endloop
endfacet
facet normal -0.25881735148199214 -0.0 -0.96592628009173
  outer loop
    vertex 4.8750076600066174 44.274999999999984 16.515544509206357
    vertex 4.000003835324982 41.09999999999998 16.749999433053347
    vertex 4.000003835324982 44.274999999999984 16.749999433053347
  endloop
endfacet
facet normal -0.25881735148199214 -0.0 -0.96592628009173
  outer loop
    vertex 4.000003835324982 41.09999999999998 16.749999433053347
    vertex 4.8750076600066174 44.274999999999984 16.515544509206357
    vertex 4.8750076600066174 41.09999999999998 16.515544509206357
  endloop
endfacet
facet normal -0.7071085084778549 -0.0 -0.7071050538910207
  outer loop
    vertex 4.8750076600066174 44.274999999999984 16.515544509206357
    vertex 5.515550835986597 41.09999999999998 15.874998203829959
    vertex 4.8750076600066174 41.09999999999998 16.515544509206357
  endloop
endfacet
facet normal -0.7071085084778549 -0.0 -0.7071050538910207
  outer loop
    vertex 5.515550835986597 41.09999999999998 15.874998203829959
    vertex 4.8750076600066174 44.274999999999984 16.515544509206357
    vertex 5.515550835986597 44.274999999999984 15.874998203829959
  endloop
endfacet
facet normal 0.0 -1.0 0.0
  outer loop
    vertex 8.000007893747844 41.09999999999998 8.999999276797823
    vertex 4.875007275625862 41.09999999999998 13.484455004817491
    vertex 4.000001719451913 41.09999999999998 13.24999998521814
  endloop
endfacet
facet normal 0.0 -1.0 0.0
  outer loop
    vertex 4.875007275625862 41.09999999999998 13.484455004817491
    vertex 8.000007893747844 41.09999999999998 8.999999276797823
    vertex 5.515546049876565 41.09999999999998 14.12499972976529
  endloop
endfacet
facet normal 0.0 -1.0 0.0
  outer loop
    vertex 5.515546049876565 41.09999999999998 14.12499972976529
    vertex 8.000007893747844 41.09999999999998 8.999999276797823
    vertex 8.00000480234224 41.09999999999998 18.000000577932497
  endloop
endfacet
facet normal 0.0 -1.0 0.0
  outer loop
    vertex 5.515546049876565 41.09999999999998 14.12499972976529
    vertex 8.00000480234224 41.09999999999998 18.000000577932497
    vertex 5.750008355291813 41.09999999999998 15.000000104002988
  endloop
endfacet
facet normal 0.0 -1.0 0.0
  outer loop
    vertex 5.750008355291813 41.09999999999998 15.000000104002988
    vertex 8.00000480234224 41.09999999999998 18.000000577932497
    vertex 5.515550835986597 41.09999999999998 15.874998203829959
  endloop
endfacet
facet normal 0.0 -1.0 0.0
  outer loop
    vertex 5.515550835986597 41.09999999999998 15.874998203829959
    vertex 8.00000480234224 41.09999999999998 18.000000577932497
    vertex 4.8750076600066174 41.09999999999998 16.515544509206357
  endloop
endfacet
facet normal 0.0 -1.0 0.0
  outer loop
    vertex 4.8750076600066174 41.09999999999998 16.515544509206357
    vertex 8.00000480234224 41.09999999999998 18.000000577932497
    vertex 4.000003835324982 41.09999999999998 16.749999433053347
  endloop
endfacet
facet normal 0.0 -1.0 0.0
  outer loop
    vertex 4.000003835324982 41.09999999999998 16.749999433053347
    vertex 8.00000480234224 41.09999999999998 18.000000577932497
    vertex 1.2267990694925234e-06 41.09999999999998 17.999999508352186
  endloop
endfacet
facet normal 0.0 -1.0 0.0
  outer loop
    vertex 4.392983397524808e-06 41.09999999999998 8.999999157955566
    vertex 2.4844621751372937 41.09999999999998 14.124998714735655
    vertex 1.2267990694925234e-06 41.09999999999998 17.999999508352186
  endloop
endfacet
facet normal 0.0 -1.0 0.0
  outer loop
    vertex 2.4844621751372937 41.09999999999998 14.124998714735655
    vertex 4.392983397524808e-06 41.09999999999998 8.999999157955566
    vertex 3.125005500674714 41.09999999999998 13.484454310835366
  endloop
endfacet
facet normal 0.0 -1.0 0.0
  outer loop
    vertex 3.125005500674714 41.09999999999998 13.484454310835366
    vertex 4.392983397524808e-06 41.09999999999998 8.999999157955566
    vertex 8.000007893747844 41.09999999999998 8.999999276797823
  endloop
endfacet
facet normal 0.0 -1.0 0.0
  outer loop
    vertex 3.125005500674714 41.09999999999998 13.484454310835366
    vertex 8.000007893747844 41.09999999999998 8.999999276797823
    vertex 4.000001719451913 41.09999999999998 13.24999998521814
  endloop
endfacet
facet normal 0.0 -1.0 0.0
  outer loop
    vertex 1.2267990694925234e-06 41.09999999999998 17.999999508352186
    vertex 2.4844621751372937 41.09999999999998 14.124998714735655
    vertex 2.2500048053895183 41.09999999999998 14.999998716038736
  endloop
endfacet
facet normal 0.0 -1.0 0.0
  outer loop
    vertex 1.2267990694925234e-06 41.09999999999998 17.999999508352186
    vertex 2.2500048053895183 41.09999999999998 14.999998716038736
    vertex 2.4844595796790516 41.09999999999998 15.87500063924425
  endloop
endfacet
facet normal 0.0 -1.0 0.0
  outer loop
    vertex 1.2267990694925234e-06 41.09999999999998 17.999999508352186
    vertex 2.4844595796790516 41.09999999999998 15.87500063924425
    vertex 3.1250058850554483 41.09999999999998 16.515543815224234
  endloop
endfacet
facet normal 0.0 -1.0 0.0
  outer loop
    vertex 1.2267990694925234e-06 41.09999999999998 17.999999508352186
    vertex 3.1250058850554483 41.09999999999998 16.515543815224234
    vertex 4.000003835324982 41.09999999999998 16.749999433053347
  endloop
endfacet
facet normal -1.4855275545541944e-08 2.9856747269085184e-25 1.0
  outer loop
    vertex 8.000007893747844 41.09999999999998 8.999999276797823
    vertex 4.392983397524808e-06 0.0 8.999999157955566
    vertex 8.000007893747844 0.0 8.999999276797823
  endloop
endfacet
facet normal -1.4855275545541944e-08 2.9856747269085184e-25 1.0
  outer loop
    vertex 8.000007893747844 41.09999999999998 8.999999276797823
    vertex 4.392983397524808e-06 41.09999999999998 8.999999157955566
    vertex 4.392983397524808e-06 0.0 8.999999157955566
  endloop
endfacet
facet normal -4.4565826404292155e-08 -1.3884296227438956e-14 -0.9999999999999991
  outer loop
    vertex 8.0000051368429 44.274999999999984 5.999999241905485
    vertex 8.000003853613423 2.9999999999999973 5.999999241906115
    vertex 3.9023834658841183e-07 2.9999999999999973 5.999999598432881
  endloop
endfacet
endsolid 1.5line
