solid short_line
facet normal 6.021222410345703e-32 1.0 3.6796377773003564e-32
  outer loop
    vertex -3.271161119755561e-13 2.9999999999999973 -7.941025614854879e-12
    vertex 3.125004701504643 2.9999999999999973 1.4844548762737064
    vertex 8.000003491416798 2.9999999999999973 -1.6742845998507504e-11
  endloop
endfacet
facet normal 6.021222410345703e-32 1.0 3.6796377773003564e-32
  outer loop
    vertex 3.125004701504643 2.9999999999999973 1.4844548762737064
    vertex -3.271161119755561e-13 2.9999999999999973 -7.941025614854879e-12
    vertex 2.4844613759679293 2.9999999999999973 2.1249992801747046
  endloop
endfacet
facet normal 6.021222410345703e-32 1.0 3.6796377773003564e-32
  outer loop
    vertex 2.4844613759679293 2.9999999999999973 2.1249992801747046
    vertex -3.271161119755561e-13 2.9999999999999973 -7.941025614854879e-12
    vertex 3.902446148451588e-07 2.9999999999999973 5.999999598424953
  endloop
endfacet
facet normal 6.021222410345703e-32 1.0 3.6796377773003564e-32
  outer loop
    vertex 8.000003491416798 2.9999999999999973 -1.6742845998507504e-11
    vertex 3.125004701504643 2.9999999999999973 1.4844548762737064
    vertex 4.000000864197559 2.9999999999999973 1.2499998376019787
  endloop
endfacet
facet normal 6.021222410345703e-32 1.0 3.6796377773003564e-32
  outer loop
    vertex 2.4844613759679293 2.9999999999999973 2.1249992801747046
    vertex 3.902446148451588e-07 2.9999999999999973 5.999999598424953
    vertex 2.250004006221035 2.9999999999999973 2.999999281478048
  endloop
endfacet
facet normal 6.021222410345703e-32 1.0 3.6796377773003564e-32
  outer loop
    vertex 2.250004006221035 2.9999999999999973 2.999999281478048
    vertex 3.902446148451588e-07 2.9999999999999973 5.999999598424953
    vertex 2.484458630954182 2.9999999999999973 3.8749993032071957
  endloop
endfacet
facet normal 6.021222410345703e-32 1.0 3.6796377773003564e-32
  outer loop
    vertex 2.484458630954182 2.9999999999999973 3.8749993032071957
    vertex 3.902446148451588e-07 2.9999999999999973 5.999999598424953
    vertex 3.1250050484993643 2.9999999999999973 4.515543905293551
  endloop
endfacet
facet normal 6.021222410345703e-32 1.0 3.6796377773003564e-32
  outer loop
    vertex 3.1250050484993643 2.9999999999999973 4.515543905293551
    vertex 3.902446148451588e-07 2.9999999999999973 5.999999598424953
    vertex 4.0000029613797965 2.9999999999999973 4.749999047752689
  endloop
endfacet
facet normal 6.021222410345703e-32 1.0 3.6796377773003564e-32
  outer loop
    vertex 8.000003491416798 2.9999999999999973 -1.6742845998507504e-11
    vertex 5.5155452133178935 2.9999999999999973 2.12499981983198
    vertex 8.000003853619678 2.9999999999999973 5.999999241889384
  endloop
endfacet
facet normal 6.021222410345703e-32 1.0 3.6796377773003564e-32
  outer loop
    vertex 5.5155452133178935 2.9999999999999973 2.12499981983198
    vertex 8.000003491416798 2.9999999999999973 -1.6742845998507504e-11
    vertex 4.8750064203716805 2.9999999999999973 1.484454857200373
  endloop
endfacet
facet normal 6.021222410345703e-32 1.0 3.6796377773003564e-32
  outer loop
    vertex 4.8750064203716805 2.9999999999999973 1.484454857200373
    vertex 8.000003491416798 2.9999999999999973 -1.6742845998507504e-11
    vertex 4.000000864197559 2.9999999999999973 1.2499998376019787
  endloop
endfacet
facet normal 6.021222410345703e-32 1.0 3.6796377773003564e-32
  outer loop
    vertex 8.000003853619678 2.9999999999999973 5.999999241889384
    vertex 5.5155452133178935 2.9999999999999973 2.12499981983198
    vertex 5.750007443955335 2.9999999999999973 2.9999992433313687
  endloop
endfacet
facet normal 6.021222410345703e-32 1.0 3.6796377773003564e-32
  outer loop
    vertex 8.000003853619678 2.9999999999999973 5.999999241889384
    vertex 5.750007443955335 2.9999999999999973 2.9999992433313687
    vertex 5.5155500742085195 2.9999999999999973 3.8749992446347075
  endloop
endfacet
facet normal 6.021222410345703e-32 1.0 3.6796377773003564e-32
  outer loop
    vertex 8.000003853619678 2.9999999999999973 5.999999241889384
    vertex 5.5155500742085195 2.9999999999999973 3.8749992446347075
    vertex 4.875006748671806 2.9999999999999973 4.515543648535703
  endloop
endfacet
facet normal 6.021222410345703e-32 1.0 3.6796377773003564e-32
  outer loop
    vertex 8.000003853619678 2.9999999999999973 5.999999241889384
    vertex 4.875006748671806 2.9999999999999973 4.515543648535703
    vertex 4.0000029613797965 2.9999999999999973 4.749999047752689
  endloop
endfacet
facet normal 6.021222410345703e-32 1.0 3.6796377773003564e-32
  outer loop
    vertex 8.000003853619678 2.9999999999999973 5.999999241889384
    vertex 4.0000029613797965 2.9999999999999973 4.749999047752689
    vertex 3.902446148451588e-07 2.9999999999999973 5.999999598424953
  endloop
endfacet
facet normal -1.1002310174035297e-12 0.0 -1.0
  outer loop
    vertex 8.000003491416798 2.9999999999999973 -1.6742845998507504e-11
    vertex -3.271161119755561e-13 0.0 -7.941025614854879e-12
    vertex -3.271161119755561e-13 2.9999999999999973 -7.941025614854879e-12
  endloop
endfacet
facet normal -1.1002310174035297e-12 0.0 -1.0
  outer loop
    vertex -3.271161119755561e-13 0.0 -7.941025614854879e-12
    vertex 8.000003491416798 2.9999999999999973 -1.6742845998507504e-11
    vertex 8.000003491416798 0.0 -1.6742845998507504e-11
  endloop
endfacet
facet normal 0.9999999999998138 4.947482175591385e-07 -3.572161314663313e-07
  outer loop
    vertex 8.000003491416798 2.9999999999999973 -1.6742845998507504e-11
    vertex 8.00000789375739 0.0 8.999999276781104
    vertex 8.000003491416798 0.0 -1.6742845998507504e-11
  endloop
endfacet
facet normal 0.9999999999998138 4.947482175591385e-07 -3.572161314663313e-07
  outer loop
    vertex 8.00000789375739 0.0 8.999999276781104
    vertex 8.000003491416798 2.9999999999999973 -1.6742845998507504e-11
    vertex 8.000003853619678 2.9999999999999973 5.999999241889384
  endloop
endfacet
facet normal 0.25881920817128096 0.0 -0.9659257825949109
  outer loop
    vertex 4.0000029613797965 0.0 4.749999047752689
    vertex 3.1250050484993643 2.9999999999999973 4.515543905293551
    vertex 4.0000029613797965 2.9999999999999973 4.749999047752689
  endloop
endfacet
facet normal 0.25881920817128107 0.0 -0.9659257825949109
  outer loop
    vertex 4.0000029613797965 0.0 4.749999047752689
    vertex 3.1250050484993643 0.0 4.515543905293551
    vertex 3.1250050484993643 2.9999999999999973 4.515543905293551
  endloop
endfacet
facet normal 0.7071057791311597 -2.3543270489534678e-17 -0.7071077832405156
  outer loop
    vertex 3.1250050484993643 2.9999999999999973 4.515543905293551
    vertex 3.1250050484993643 0.0 4.515543905293551
    vertex 2.484458630954182 2.9999999999999973 3.8749993032071957
  endloop
endfacet
facet normal 0.7071057791311595 -2.3543270489534675e-17 -0.7071077832405156
  outer loop
    vertex 2.484458630954182 2.9999999999999973 3.8749993032071957
    vertex 3.1250050484993643 0.0 4.515543905293551
    vertex 2.484458630954182 0.0 3.8749993032071957
  endloop
endfacet
facet normal 0.965926081421816 4.55169614882211e-18 -0.25881809293226693
  outer loop
    vertex 2.484458630954182 2.9999999999999973 3.8749993032071957
    vertex 2.484458630954182 0.0 3.8749993032071957
    vertex 2.250004006221035 2.9999999999999973 2.999999281478048
  endloop
endfacet
facet normal 0.9659260814218158 4.55169614882211e-18 -0.258818092932267
  outer loop
    vertex 2.250004006221035 2.9999999999999973 2.999999281478048
    vertex 2.484458630954182 0.0 3.8749993032071957
    vertex 2.250004006221035 0.0 2.999999281478048
  endloop
endfacet
facet normal 0.9659253223445816 -9.495356693133919e-18 0.25882092584162536
  outer loop
    vertex 2.250004006221035 2.9999999999999973 2.999999281478048
    vertex 2.250004006221035 0.0 2.999999281478048
    vertex 2.4844613759679293 2.9999999999999973 2.1249992801747046
  endloop
endfacet
facet normal 0.9659253223445817 0.0 0.25882092584162547
  outer loop
    vertex 2.4844613759679293 2.9999999999999973 2.1249992801747046
    vertex 2.250004006221035 0.0 2.999999281478048
    vertex 2.4844613759679293 0.0 2.1249992801747046
  endloop
endfacet
facet normal 0.7071073763982236 0.0 0.7071061859743706
  outer loop
    vertex 3.125004701504643 2.9999999999999973 1.4844548762737064
    vertex 2.4844613759679293 2.9999999999999973 2.1249992801747046
    vertex 2.4844613759679293 0.0 2.1249992801747046
  endloop
endfacet
facet normal 0.7071073763982237 -1.1771689925347525e-17 0.7071061859743705
  outer loop
    vertex 3.125004701504643 2.9999999999999973 1.4844548762737064
    vertex 2.4844613759679293 0.0 2.1249992801747046
    vertex 3.125004701504643 0.0 1.4844548762737064
  endloop
endfacet
facet normal 0.25881958429021734 4.551733834739503e-18 0.9659256818139992
  outer loop
    vertex 4.000000864197559 2.9999999999999973 1.2499998376019787
    vertex 3.125004701504643 2.9999999999999973 1.4844548762737064
    vertex 3.125004701504643 0.0 1.4844548762737064
  endloop
endfacet
facet normal 0.25881958429021734 0.0 0.9659256818139992
  outer loop
    vertex 4.000000864197559 2.9999999999999973 1.2499998376019787
    vertex 3.125004701504643 0.0 1.4844548762737064
    vertex 4.000000864197559 0.0 1.2499998376019787
  endloop
endfacet
facet normal -0.2588169722526735 -1.8990486400147446e-17 0.9659263817051271
  outer loop
    vertex 4.8750064203716805 2.9999999999999973 1.484454857200373
    vertex 4.000000864197559 2.9999999999999973 1.2499998376019787
    vertex 4.000000864197559 0.0 1.2499998376019787
  endloop
endfacet
facet normal -0.25881697225267375 -9.495243200073726e-18 0.9659263817051271
  outer loop
    vertex 4.8750064203716805 2.9999999999999973 1.484454857200373
    vertex 4.000000864197559 0.0 1.2499998376019787
    vertex 4.8750064203716805 0.0 1.484454857200373
  endloop
endfacet
facet normal -0.7071101865969707 -4.7086824269102915e-17 0.7071033757597242
  outer loop
    vertex 4.8750064203716805 2.9999999999999973 1.484454857200373
    vertex 4.8750064203716805 0.0 1.484454857200373
    vertex 5.5155452133178935 2.9999999999999973 2.12499981983198
  endloop
endfacet
facet normal -0.7071101865969709 3.5315118201827186e-17 0.7071033757597236
  outer loop
    vertex 5.5155452133178935 2.9999999999999973 2.12499981983198
    vertex 4.8750064203716805 0.0 1.484454857200373
    vertex 5.5155452133178935 0.0 2.12499981983198
  endloop
endfacet
facet normal -0.9659239380924598 4.5516891608435965e-18 0.25882609184538174
  outer loop
    vertex 5.5155452133178935 2.9999999999999973 2.12499981983198
    vertex 5.5155452133178935 0.0 2.12499981983198
    vertex 5.750007443955335 2.9999999999999973 2.9999992433313687
  endloop
endfacet
facet normal -0.9659239380924597 0.0 0.2588260918453818
  outer loop
    vertex 5.750007443955335 2.9999999999999973 2.9999992433313687
    vertex 5.5155452133178935 0.0 2.12499981983198
    vertex 5.750007443955335 0.0 2.9999992433313687
  endloop
endfacet
facet normal -0.9659253223445816 0.0 -0.25882092584162536
  outer loop
    vertex 5.750007443955335 2.9999999999999973 2.9999992433313687
    vertex 5.750007443955335 0.0 2.9999992433313687
    vertex 5.5155500742085195 2.9999999999999973 3.8749992446347075
  endloop
endfacet
facet normal -0.9659253223445815 1.8990713386267847e-17 -0.2588209258416256
  outer loop
    vertex 5.5155500742085195 2.9999999999999973 3.8749992446347075
    vertex 5.750007443955335 0.0 2.9999992433313687
    vertex 5.5155500742085195 0.0 3.8749992446347075
  endloop
endfacet
facet normal -0.7071073763982239 -1.1771689925347522e-17 -0.7071061859743702
  outer loop
    vertex 5.5155500742085195 0.0 3.8749992446347075
    vertex 4.875006748671806 2.9999999999999973 4.515543648535703
    vertex 5.5155500742085195 2.9999999999999973 3.8749992446347075
  endloop
endfacet
facet normal -0.7071073763982239 -1.1771689925347523e-17 -0.7071061859743702
  outer loop
    vertex 5.5155500742085195 0.0 3.8749992446347075
    vertex 4.875006748671806 0.0 4.515543648535703
    vertex 4.875006748671806 2.9999999999999973 4.515543648535703
  endloop
endfacet
facet normal -0.25881785141447256 0.0 -0.9659261461360265
  outer loop
    vertex 4.875006748671806 0.0 4.515543648535703
    vertex 4.0000029613797965 2.9999999999999973 4.749999047752689
    vertex 4.875006748671806 2.9999999999999973 4.515543648535703
  endloop
endfacet
facet normal -0.2588178514144726 0.0 -0.9659261461360262
  outer loop
    vertex 4.875006748671806 0.0 4.515543648535703
    vertex 4.0000029613797965 0.0 4.749999047752689
    vertex 4.0000029613797965 2.9999999999999973 4.749999047752689
  endloop
endfacet
facet normal 0.0 -1.0 0.0
  outer loop
    vertex 8.000003491416798 0.0 -1.6742845998507504e-11
    vertex 4.8750064203716805 0.0 1.484454857200373
    vertex 4.000000864197559 0.0 1.2499998376019787
  endloop
endfacet
facet normal 0.0 -1.0 0.0
  outer loop
    vertex 4.8750064203716805 0.0 1.484454857200373
    vertex 8.000003491416798 0.0 -1.6742845998507504e-11
    vertex 5.5155452133178935 0.0 2.12499981983198
  endloop
endfacet
facet normal 0.0 -1.0 0.0
  outer loop
    vertex 5.5155452133178935 0.0 2.12499981983198
    vertex 8.000003491416798 0.0 -1.6742845998507504e-11
    vertex 8.00000789375739 0.0 8.999999276781104
  endloop
endfacet
facet normal 0.0 -1.0 0.0
  outer loop
    vertex 5.5155452133178935 0.0 2.12499981983198
    vertex 8.00000789375739 0.0 8.999999276781104
    vertex 5.750007443955335 0.0 2.9999992433313687
  endloop
endfacet
facet normal 0.0 -1.0 0.0
  outer loop
    vertex 5.750007443955335 0.0 2.9999992433313687
    vertex 8.00000789375739 0.0 8.999999276781104
    vertex 5.5155500742085195 0.0 3.8749992446347075
  endloop
endfacet
facet normal 0.0 -1.0 0.0
  outer loop
    vertex 5.5155500742085195 0.0 3.8749992446347075
    vertex 8.00000789375739 0.0 8.999999276781104
    vertex 4.875006748671806 0.0 4.515543648535703
  endloop
endfacet
facet normal 0.0 -1.0 0.0
  outer loop
    vertex 4.875006748671806 0.0 4.515543648535703
    vertex 8.00000789375739 0.0 8.999999276781104
    vertex 4.0000029613797965 0.0 4.749999047752689
  endloop
endfacet
facet normal 0.0 -1.0 0.0
  outer loop
    vertex 4.0000029613797965 0.0 4.749999047752689
    vertex 8.00000789375739 0.0 8.999999276781104
    vertex 4.3929929667285705e-06 0.0 8.999999157947645
  endloop
endfacet
facet normal 0.0 -1.0 0.0
  outer loop
    vertex -3.271161119755561e-13 0.0 -7.941025614854879e-12
    vertex 2.4844613759679293 0.0 2.1249992801747046
    vertex 4.3929929667285705e-06 0.0 8.999999157947645
  endloop
endfacet
facet normal 0.0 -1.0 0.0
  outer loop
    vertex 2.4844613759679293 0.0 2.1249992801747046
    vertex -3.271161119755561e-13 0.0 -7.941025614854879e-12
    vertex 3.125004701504643 0.0 1.4844548762737064
  endloop
endfacet
facet normal 0.0 -1.0 0.0
  outer loop
    vertex 3.125004701504643 0.0 1.4844548762737064
    vertex -3.271161119755561e-13 0.0 -7.941025614854879e-12
    vertex 8.000003491416798 0.0 -1.6742845998507504e-11
  endloop
endfacet
facet normal 0.0 -1.0 0.0
  outer loop
    vertex 3.125004701504643 0.0 1.4844548762737064
    vertex 8.000003491416798 0.0 -1.6742845998507504e-11
    vertex 4.000000864197559 0.0 1.2499998376019787
  endloop
endfacet
facet normal 0.0 -1.0 0.0
  outer loop
    vertex 4.3929929667285705e-06 0.0 8.999999157947645
    vertex 2.4844613759679293 0.0 2.1249992801747046
    vertex 2.250004006221035 0.0 2.999999281478048
  endloop
endfacet
facet normal 0.0 -1.0 0.0
  outer loop
    vertex 4.3929929667285705e-06 0.0 8.999999157947645
    vertex 2.250004006221035 0.0 2.999999281478048
    vertex 2.484458630954182 0.0 3.8749993032071957
  endloop
endfacet
facet normal 0.0 -1.0 0.0
  outer loop
    vertex 4.3929929667285705e-06 0.0 8.999999157947645
    vertex 2.484458630954182 0.0 3.8749993032071957
    vertex 3.1250050484993643 0.0 4.515543905293551
  endloop
endfacet
facet normal 0.0 -1.0 0.0
  outer loop
    vertex 4.3929929667285705e-06 0.0 8.999999157947645
    vertex 3.1250050484993643 0.0 4.515543905293551
    vertex 4.0000029613797965 0.0 4.749999047752689
  endloop
endfacet
facet normal 0.0 -1.0 0.0
  outer loop
    vertex 8.000007893757413 32.662494277954096 8.999999276781105
    vertex 4.875007275640375 32.662494277954096 13.48445500480422
    vertex 4.000001719466219 32.662494277954096 13.249999985205816
  endloop
endfacet
facet normal 0.0 -1.0 0.0
  outer loop
    vertex 4.875007275640375 32.662494277954096 13.48445500480422
    vertex 8.000007893757413 32.662494277954096 8.999999276781105
    vertex 5.515546049891778 32.662494277954096 14.124999729751314
  endloop
endfacet
facet normal 0.0 -1.0 0.0
  outer loop
    vertex 5.515546049891778 32.662494277954096 14.124999729751314
    vertex 8.000007893757413 32.662494277954096 8.999999276781105
    vertex 8.000004802361655 32.662494277954096 18.00000057791581
  endloop
endfacet
facet normal 0.0 -1.0 0.0
  outer loop
    vertex 5.515546049891778 32.662494277954096 14.124999729751314
    vertex 8.000004802361655 32.662494277954096 18.00000057791581
    vertex 5.750008355307941 32.662494277954096 15.000000103988755
  endloop
endfacet
facet normal 0.0 -1.0 0.0
  outer loop
    vertex 5.750008355307941 32.662494277954096 15.000000103988755
    vertex 8.000004802361655 32.662494277954096 18.00000057791581
    vertex 5.515550836003639 32.662494277954096 15.874998203815995
  endloop
endfacet
facet normal 0.0 -1.0 0.0
  outer loop
    vertex 5.515550836003639 32.662494277954096 15.874998203815995
    vertex 8.000004802361655 32.662494277954096 18.00000057791581
    vertex 4.8750076600244565 32.662494277954096 16.51554450919309
  endloop
endfacet
facet normal 0.0 -1.0 0.0
  outer loop
    vertex 4.8750076600244565 32.662494277954096 16.51554450919309
    vertex 8.000004802361655 32.662494277954096 18.00000057791581
    vertex 4.000003835343088 32.662494277954096 16.749999433041044
  endloop
endfacet
facet normal 0.0 -1.0 0.0
  outer loop
    vertex 4.000003835343088 32.662494277954096 16.749999433041044
    vertex 8.000004802361655 32.662494277954096 18.00000057791581
    vertex 1.226818454647116e-06 32.662494277954096 17.999999508344285
  endloop
endfacet
facet normal 0.0 -1.0 0.0
  outer loop
    vertex 4.392992944168838e-06 32.662494277954096 8.999999157947643
    vertex 2.484462175152499 32.662494277954096 14.124998714725013
    vertex 1.226818454647116e-06 32.662494277954096 17.999999508344285
  endloop
endfacet
facet normal 0.0 -1.0 0.0
  outer loop
    vertex 2.484462175152499 32.662494277954096 14.124998714725013
    vertex 4.392992944168838e-06 32.662494277954096 8.999999157947643
    vertex 3.125005500689269 32.662494277954096 13.484454310824018
  endloop
endfacet
facet normal 0.0 -1.0 0.0
  outer loop
    vertex 3.125005500689269 32.662494277954096 13.484454310824018
    vertex 4.392992944168838e-06 32.662494277954096 8.999999157947643
    vertex 8.000007893757413 32.662494277954096 8.999999276781105
  endloop
endfacet
facet normal 0.0 -1.0 0.0
  outer loop
    vertex 3.125005500689269 32.662494277954096 13.484454310824018
    vertex 8.000007893757413 32.662494277954096 8.999999276781105
    vertex 4.000001719466219 32.662494277954096 13.249999985205816
  endloop
endfacet
facet normal 0.0 -1.0 0.0
  outer loop
    vertex 1.226818454647116e-06 32.662494277954096 17.999999508344285
    vertex 2.484462175152499 32.662494277954096 14.124998714725013
    vertex 2.2500048054056836 32.662494277954096 14.999998716028355
  endloop
endfacet
facet normal 0.0 -1.0 0.0
  outer loop
    vertex 1.226818454647116e-06 32.662494277954096 17.999999508344285
    vertex 2.2500048054056836 32.662494277954096 14.999998716028355
    vertex 2.48445957969617 32.662494277954096 15.87500063923361
  endloop
endfacet
facet normal 0.0 -1.0 0.0
  outer loop
    vertex 1.226818454647116e-06 32.662494277954096 17.999999508344285
    vertex 2.48445957969617 32.662494277954096 15.87500063923361
    vertex 3.1250058850732603 32.662494277954096 16.515543815212883
  endloop
endfacet
facet normal 0.0 -1.0 0.0
  outer loop
    vertex 1.226818454647116e-06 32.662494277954096 17.999999508344285
    vertex 3.1250058850732603 32.662494277954096 16.515543815212883
    vertex 4.000003835343088 32.662494277954096 16.749999433041044
  endloop
endfacet
facet normal 0.9999999999999984 -4.141908163605669e-09 5.5753643007916396e-08
  outer loop
    vertex 8.000003853619678 2.9999999999999973 5.999999241889384
    vertex 8.000007893757413 32.662494277954096 8.999999276781105
    vertex 8.00000789375739 0.0 8.999999276781104
  endloop
endfacet
facet normal 0.9999999999999984 -4.141908163605669e-09 5.5753643007916396e-08
  outer loop
    vertex 8.000007893757413 32.662494277954096 8.999999276781105
    vertex 8.000003853619678 2.9999999999999973 5.999999241889384
    vertex 8.000005136849204 35.83749427795409 5.999999241888746
  endloop
endfacet
facet normal 0.9999999999999984 -4.141908163605669e-09 5.5753643007916396e-08
  outer loop
    vertex 8.000007893757413 32.662494277954096 8.999999276781105
    vertex 8.000005136849204 35.83749427795409 5.999999241888746
    vertex 8.000004802361655 32.662494277954096 18.00000057791581
  endloop
endfacet
facet normal 0.9999999999999984 -4.141908163605669e-09 5.5753643007916396e-08
  outer loop
    vertex 8.000004802361655 32.662494277954096 18.00000057791581
    vertex 8.000005136849204 35.83749427795409 5.999999241888746
    vertex 8.000004802361655 35.83749427795409 18.00000057791581
  endloop
endfacet
facet normal -4.456712426881281e-08 -1.7623530807524742e-14 -0.9999999999999991
  outer loop
    vertex 8.000005136849204 35.83749427795409 5.999999241888746
    vertex 8.000003853619678 2.9999999999999973 5.999999241889384
    vertex 2.9193143754824288e-06 35.83749427795409 5.999999598425839
  endloop
endfacet
facet normal 0.0 1.0 0.0
  outer loop
    vertex 2.9193143754824288e-06 35.83749427795409 5.999999598425839
    vertex 2.484462175152499 35.83749427795409 14.124998714725013
    vertex 8.000005136849204 35.83749427795409 5.999999241888746
  endloop
endfacet
facet normal 0.0 1.0 0.0
  outer loop
    vertex 2.484462175152499 35.83749427795409 14.124998714725013
    vertex 2.9193143754824288e-06 35.83749427795409 5.999999598425839
    vertex 1.226818454647116e-06 35.83749427795409 17.999999508344285
  endloop
endfacet
facet normal 0.0 1.0 0.0
  outer loop
    vertex 8.000005136849204 35.83749427795409 5.999999241888746
    vertex 2.484462175152499 35.83749427795409 14.124998714725013
    vertex 3.125005500689269 35.83749427795409 13.484454310824018
  endloop
endfacet
facet normal 0.0 1.0 0.0
  outer loop
    vertex 8.000005136849204 35.83749427795409 5.999999241888746
    vertex 3.125005500689269 35.83749427795409 13.484454310824018
    vertex 4.000001719466219 35.83749427795409 13.249999985205816
  endloop
endfacet
facet normal 0.0 1.0 0.0
  outer loop
    vertex 2.484462175152499 35.83749427795409 14.124998714725013
    vertex 1.226818454647116e-06 35.83749427795409 17.999999508344285
    vertex 2.2500048054056836 35.83749427795409 14.999998716028355
  endloop
endfacet
facet normal 0.0 1.0 0.0
  outer loop
    vertex 2.2500048054056836 35.83749427795409 14.999998716028355
    vertex 1.226818454647116e-06 35.83749427795409 17.999999508344285
    vertex 2.48445957969617 35.83749427795409 15.87500063923361
  endloop
endfacet
facet normal 0.0 1.0 0.0
  outer loop
    vertex 2.48445957969617 35.83749427795409 15.87500063923361
    vertex 1.226818454647116e-06 35.83749427795409 17.999999508344285
    vertex 3.1250058850732603 35.83749427795409 16.515543815212883
  endloop
endfacet
facet normal 0.0 1.0 0.0
  outer loop
    vertex 3.1250058850732603 35.83749427795409 16.515543815212883
    vertex 1.226818454647116e-06 35.83749427795409 17.999999508344285
    vertex 4.000003835343088 35.83749427795409 16.749999433041044
  endloop
endfacet
facet normal 0.0 1.0 0.0
  outer loop
    vertex 8.000005136849204 35.83749427795409 5.999999241888746
    vertex 5.515546049891778 35.83749427795409 14.124999729751314
    vertex 8.000004802361655 35.83749427795409 18.00000057791581
  endloop
endfacet
facet normal 0.0 1.0 0.0
  outer loop
    vertex 5.515546049891778 35.83749427795409 14.124999729751314
    vertex 8.000005136849204 35.83749427795409 5.999999241888746
    vertex 4.875007275640375 35.83749427795409 13.48445500480422
  endloop
endfacet
facet normal 0.0 1.0 0.0
  outer loop
    vertex 4.875007275640375 35.83749427795409 13.48445500480422
    vertex 8.000005136849204 35.83749427795409 5.999999241888746
    vertex 4.000001719466219 35.83749427795409 13.249999985205816
  endloop
endfacet
facet normal 0.0 1.0 0.0
  outer loop
    vertex 8.000004802361655 35.83749427795409 18.00000057791581
    vertex 5.515546049891778 35.83749427795409 14.124999729751314
    vertex 5.750008355307941 35.83749427795409 15.000000103988755
  endloop
endfacet
facet normal 0.0 1.0 0.0
  outer loop
    vertex 8.000004802361655 35.83749427795409 18.00000057791581
    vertex 5.750008355307941 35.83749427795409 15.000000103988755
    vertex 5.515550836003639 35.83749427795409 15.874998203815995
  endloop
endfacet
facet normal 0.0 1.0 0.0
  outer loop
    vertex 8.000004802361655 35.83749427795409 18.00000057791581
    vertex 5.515550836003639 35.83749427795409 15.874998203815995
    vertex 4.8750076600244565 35.83749427795409 16.51554450919309
  endloop
endfacet
facet normal 0.0 1.0 0.0
  outer loop
    vertex 8.000004802361655 35.83749427795409 18.00000057791581
    vertex 4.8750076600244565 35.83749427795409 16.51554450919309
    vertex 4.000003835343088 35.83749427795409 16.749999433041044
  endloop
endfacet
facet normal 0.0 1.0 0.0
  outer loop
    vertex 8.000004802361655 35.83749427795409 18.00000057791581
    vertex 4.000003835343088 35.83749427795409 16.749999433041044
    vertex 1.226818454647116e-06 35.83749427795409 17.999999508344285
  endloop
endfacet
facet normal -0.9999999999999986 5.1430666530202906e-08 -1.7512007913222935e-08
  outer loop
    vertex 1.226818454647116e-06 35.83749427795409 17.999999508344285
    vertex 4.392992944168838e-06 32.662494277954096 8.999999157947643
    vertex 1.226818454647116e-06 32.662494277954096 17.999999508344285
  endloop
endfacet
facet normal -0.9999999999999986 5.1430666530202906e-08 -1.7512007913222935e-08
  outer loop
    vertex 4.3929929667285705e-06 0.0 8.999999157947645
    vertex 3.902446148451588e-07 2.9999999999999973 5.999999598424953
    vertex -3.271161119755561e-13 0.0 -7.941025614854879e-12
  endloop
endfacet
facet normal -0.9999999999999986 5.1430666530202906e-08 -1.7512007913222935e-08
  outer loop
    vertex 3.902446148451588e-07 2.9999999999999973 5.999999598424953
    vertex 4.3929929667285705e-06 0.0 8.999999157947645
    vertex 4.392992944168838e-06 32.662494277954096 8.999999157947643
  endloop
endfacet
facet normal -0.9999999999999986 5.1430666530202906e-08 -1.7512007913222935e-08
  outer loop
    vertex 3.902446148451588e-07 2.9999999999999973 5.999999598424953
    vertex 4.392992944168838e-06 32.662494277954096 8.999999157947643
    vertex 2.9193143754824288e-06 35.83749427795409 5.999999598425839
  endloop
endfacet
facet normal -0.9999999999999986 5.1430666530202906e-08 -1.7512007913222935e-08
  outer loop
    vertex 2.9193143754824288e-06 35.83749427795409 5.999999598425839
    vertex 4.392992944168838e-06 32.662494277954096 8.999999157947643
    vertex 1.226818454647116e-06 35.83749427795409 17.999999508344285
  endloop
endfacet
facet normal -0.9999999999999986 5.1430666530202906e-08 -1.7512007913222935e-08
  outer loop
    vertex -3.271161119755561e-13 2.9999999999999973 -7.941025614854879e-12
    vertex -3.271161119755561e-13 0.0 -7.941025614854879e-12
    vertex 3.902446148451588e-07 2.9999999999999973 5.999999598424953
  endloop
endfacet
facet normal -1.3369638028615236e-07 0.0 0.999999999999991
  outer loop
    vertex 8.000004802361655 32.662494277954096 18.00000057791581
    vertex 1.226818454647116e-06 35.83749427795409 17.999999508344285
    vertex 1.226818454647116e-06 32.662494277954096 17.999999508344285
  endloop
endfacet
facet normal -1.3369638028615236e-07 0.0 0.999999999999991
  outer loop
    vertex 1.226818454647116e-06 35.83749427795409 17.999999508344285
    vertex 8.000004802361655 32.662494277954096 18.00000057791581
    vertex 8.000004802361655 35.83749427795409 18.00000057791581
  endloop
endfacet
facet normal 0.9659261807569128 0.0 -0.2588177222068914
  outer loop
    vertex 2.2500048054056836 35.83749427795409 14.999998716028355
    vertex 2.48445957969617 32.662494277954096 15.87500063923361
    vertex 2.2500048054056836 32.662494277954096 14.999998716028355
  endloop
endfacet
facet normal 0.9659261807569128 0.0 -0.2588177222068914
  outer loop
    vertex 2.48445957969617 32.662494277954096 15.87500063923361
    vertex 2.2500048054056836 35.83749427795409 14.999998716028355
    vertex 2.48445957969617 35.83749427795409 15.87500063923361
  endloop
endfacet
facet normal 0.7071050538902478 0.0 -0.7071085084786279
  outer loop
    vertex 2.48445957969617 35.83749427795409 15.87500063923361
    vertex 3.1250058850732603 32.662494277954096 16.515543815212883
    vertex 2.48445957969617 32.662494277954096 15.87500063923361
  endloop
endfacet
facet normal 0.7071050538902478 0.0 -0.7071085084786279
  outer loop
    vertex 3.1250058850732603 32.662494277954096 16.515543815212883
    vertex 2.48445957969617 35.83749427795409 15.87500063923361
    vertex 3.1250058850732603 35.83749427795409 16.515543815212883
  endloop
endfacet
facet normal 0.2588196874679396 0.0 -0.9659256541675442
  outer loop
    vertex 4.000003835343088 35.83749427795409 16.749999433041044
    vertex 3.1250058850732603 32.662494277954096 16.515543815212883
    vertex 3.1250058850732603 35.83749427795409 16.515543815212883
  endloop
endfacet
facet normal 0.2588196874679396 0.0 -0.9659256541675442
  outer loop
    vertex 3.1250058850732603 32.662494277954096 16.515543815212883
    vertex 4.000003835343088 35.83749427795409 16.749999433041044
    vertex 4.000003835343088 32.662494277954096 16.749999433041044
  endloop
endfacet
facet normal -0.258817351483059 0.0 -0.9659262800914441
  outer loop
    vertex 4.8750076600244565 35.83749427795409 16.51554450919309
    vertex 4.000003835343088 32.662494277954096 16.749999433041044
    vertex 4.000003835343088 35.83749427795409 16.749999433041044
  endloop
endfacet
facet normal -0.258817351483059 0.0 -0.9659262800914441
  outer loop
    vertex 4.000003835343088 32.662494277954096 16.749999433041044
    vertex 4.8750076600244565 35.83749427795409 16.51554450919309
    vertex 4.8750076600244565 32.662494277954096 16.51554450919309
  endloop
endfacet
facet normal -0.7071085084786529 0.0 -0.7071050538902228
  outer loop
    vertex 5.515550836003639 35.83749427795409 15.874998203815995
    vertex 4.8750076600244565 32.662494277954096 16.51554450919309
    vertex 4.8750076600244565 35.83749427795409 16.51554450919309
  endloop
endfacet
facet normal -0.7071085084786529 0.0 -0.7071050538902228
  outer loop
    vertex 4.8750076600244565 32.662494277954096 16.51554450919309
    vertex 5.515550836003639 35.83749427795409 15.874998203815995
    vertex 5.515550836003639 32.662494277954096 15.874998203815995
  endloop
endfacet
facet normal -0.9659251404561386 0.0 -0.2588216046522952
  outer loop
    vertex 5.515550836003639 35.83749427795409 15.874998203815995
    vertex 5.750008355307941 32.662494277954096 15.000000103988755
    vertex 5.515550836003639 32.662494277954096 15.874998203815995
  endloop
endfacet
facet normal -0.9659251404561386 0.0 -0.2588216046522952
  outer loop
    vertex 5.750008355307941 32.662494277954096 15.000000103988755
    vertex 5.515550836003639 35.83749427795409 15.874998203815995
    vertex 5.750008355307941 35.83749427795409 15.000000103988755
  endloop
endfacet
facet normal -0.9659239877637535 0.0 0.2588259064749284
  outer loop
    vertex 5.750008355307941 35.83749427795409 15.000000103988755
    vertex 5.515546049891778 32.662494277954096 14.124999729751314
    vertex 5.750008355307941 32.662494277954096 15.000000103988755
  endloop
endfacet
facet normal -0.9659239877637535 0.0 0.2588259064749284
  outer loop
    vertex 5.515546049891778 32.662494277954096 14.124999729751314
    vertex 5.750008355307941 35.83749427795409 15.000000103988755
    vertex 5.515546049891778 35.83749427795409 14.124999729751314
  endloop
endfacet
facet normal -0.7071100657245997 0.0 0.7071034966332386
  outer loop
    vertex 5.515546049891778 35.83749427795409 14.124999729751314
    vertex 4.875007275640375 32.662494277954096 13.48445500480422
    vertex 5.515546049891778 32.662494277954096 14.124999729751314
  endloop
endfacet
facet normal -0.7071100657245997 0.0 0.7071034966332386
  outer loop
    vertex 4.875007275640375 32.662494277954096 13.48445500480422
    vertex 5.515546049891778 35.83749427795409 14.124999729751314
    vertex 4.875007275640375 35.83749427795409 13.48445500480422
  endloop
endfacet
facet normal -0.25881697225267747 0.0 0.9659263817051261
  outer loop
    vertex 4.875007275640375 32.662494277954096 13.48445500480422
    vertex 4.000001719466219 35.83749427795409 13.249999985205816
    vertex 4.000001719466219 32.662494277954096 13.249999985205816
  endloop
endfacet
facet normal -0.25881697225267747 0.0 0.9659263817051261
  outer loop
    vertex 4.000001719466219 35.83749427795409 13.249999985205816
    vertex 4.875007275640375 32.662494277954096 13.48445500480422
    vertex 4.875007275640375 35.83749427795409 13.48445500480422
  endloop
endfacet
facet normal 0.2588188343874798 0.0 0.9659258827499687
  outer loop
    vertex 4.000001719466219 32.662494277954096 13.249999985205816
    vertex 3.125005500689269 35.83749427795409 13.484454310824018
    vertex 3.125005500689269 32.662494277954096 13.484454310824018
  endloop
endfacet
facet normal 0.2588188343874798 0.0 0.9659258827499687
  outer loop
    vertex 3.125005500689269 35.83749427795409 13.484454310824018
    vertex 4.000001719466219 32.662494277954096 13.249999985205816
    vertex 4.000001719466219 35.83749427795409 13.249999985205816
  endloop
endfacet
facet normal 0.7071073763982157 0.0 0.7071061859743786
  outer loop
    vertex 3.125005500689269 32.662494277954096 13.484454310824018
    vertex 2.484462175152499 35.83749427795409 14.124998714725013
    vertex 2.484462175152499 32.662494277954096 14.124998714725013
  endloop
endfacet
facet normal 0.7071073763982157 0.0 0.7071061859743786
  outer loop
    vertex 2.484462175152499 35.83749427795409 14.124998714725013
    vertex 3.125005500689269 32.662494277954096 13.484454310824018
    vertex 3.125005500689269 35.83749427795409 13.484454310824018
  endloop
endfacet
facet normal 0.9659253223445814 0.0 0.25882092584162636
  outer loop
    vertex 2.484462175152499 35.83749427795409 14.124998714725013
    vertex 2.2500048054056836 32.662494277954096 14.999998716028355
    vertex 2.484462175152499 32.662494277954096 14.124998714725013
  endloop
endfacet
facet normal 0.9659253223445814 0.0 0.25882092584162636
  outer loop
    vertex 2.2500048054056836 32.662494277954096 14.999998716028355
    vertex 2.484462175152499 35.83749427795409 14.124998714725013
    vertex 2.2500048054056836 35.83749427795409 14.999998716028355
  endloop
endfacet
facet normal -1.4854175930945065e-08 0.0 1.0
  outer loop
    vertex 4.3929929667285705e-06 0.0 8.999999157947645
    vertex 8.000007893757413 32.662494277954096 8.999999276781105
    vertex 4.392992944168838e-06 32.662494277954096 8.999999157947643
  endloop
endfacet
facet normal -1.4854175930945065e-08 0.0 1.0
  outer loop
    vertex 8.000007893757413 32.662494277954096 8.999999276781105
    vertex 4.3929929667285705e-06 0.0 8.999999157947645
    vertex 8.00000789375739 0.0 8.999999276781104
  endloop
endfacet
facet normal -4.456692688503682e-08 3.04620477312037e-14 -0.999999999999999
  outer loop
    vertex 8.000003853619678 2.9999999999999973 5.999999241889384
    vertex 3.902446148451588e-07 2.9999999999999973 5.999999598424953
    vertex 2.9193143754824288e-06 35.83749427795409 5.999999598425839
  endloop
endfacet
endsolid short_line
